#!OML:ASF E:\VariousWalksJay\Project 1\Capture day 1\Session 1\Actor2.ASF
:FULLY-SPECIFIED
:DEGREES
1185
root -2.82002 17.4765 -21.6345 362.327 -55.0798 -364.05
lowerback 2.48746 0.0746809 4.27004
upperback 6.1842 0.0028197 -0.637628
thorax 5.02153 0.182553 -3.05689
lowerneck -8.20833 0.983446 1.17699
upperneck -3.15788 1.14592 2.77017
head 0.370964 0.562691 0.685174
rclavicle -1.07692e-013 1.63003e-014
rhumerus -25.1541 5.85064 -69.2351
rradius 42.8183
rwrist -5.64422
rhand -21.2991 -9.67666
rfingers 7.12502
rthumb 5.08553 -39.5956
lclavicle -1.07692e-013 1.63003e-014
lhumerus -21.2742 7.82901 80.613
lradius 11.496
lwrist -9.86684
lhand -9.44928 -12.4492
lfingers 7.12502
lthumb 16.5139 16.868
rfemur -28.1536 -14.7234 16.2379
rtibia 37.2341
rfoot -18.7113 -17.4477
rtoes -15.2962
lfemur -1.57362 9.66438 -19.7313
ltibia 29.6265
lfoot -24.6653 21.0635
ltoes -6.18933
1186
root -2.79282 17.4781 -21.6487 362.54 -54.6288 -364.378
lowerback 2.47349 0.0821338 4.30852
upperback 6.19346 0.012394 -0.639777
thorax 5.04061 0.19007 -3.08058
lowerneck -8.1625 0.934833 1.11062
upperneck -3.1929 1.08917 2.95604
head 0.35236 0.535958 0.751621
rclavicle -2.36554e-014 2.78299e-015
rhumerus -25.0502 6.03711 -69.5599
rradius 42.9857
rwrist -5.90911
rhand -20.8999 -9.73381
rfingers 7.12502
rthumb 5.47102 -39.6432
lclavicle -2.36554e-014 2.78299e-015
lhumerus -21.676 10.4111 79.7876
lradius 10.6839
lwrist -11.9084
lhand -9.60284 -12.3398
lfingers 7.12502
lthumb 16.3661 16.9897
rfemur -28.1341 -14.5285 16.5978
rtibia 38.3382
rfoot -18.3895 -15.3115
rtoes -17.8085
lfemur -1.79589 9.37595 -19.5119
ltibia 29.8753
lfoot -24.7143 20.9084
ltoes -6.08563
1187
root -2.76762 17.479 -21.6639 362.736 -54.1539 -364.673
lowerback 2.44183 0.086638 4.34173
upperback 6.20152 0.0176586 -0.647731
thorax 5.06808 0.19561 -3.10745
lowerneck -8.13568 0.877396 1.04489
upperneck -3.21947 1.01992 3.14377
head 0.339896 0.503174 0.818592
rclavicle 2.62396e-014 -1.31198e-014
rhumerus -24.9826 6.19345 -69.9084
rradius 43.1694
rwrist -6.13698
rhand -20.4579 -9.81851
rfingers 7.12502
rthumb 5.8977 -39.7164
lclavicle 2.62396e-014 -1.31198e-014
lhumerus -21.9459 10.5505 79.8579
lradius 9.95788
lwrist -11.5207
lhand -10.0329 -11.9864
lfingers 7.12502
lthumb 15.952 17.3767
rfemur -28.1107 -14.2822 16.9346
rtibia 39.4621
rfoot -18.2462 -13.2104
rtoes -20.0342
lfemur -2.02152 9.08051 -19.2994
ltibia 30.1092
lfoot -24.7625 20.7341
ltoes -5.99003
1188
root -2.74417 17.4793 -21.6801 362.901 -53.6532 -364.912
lowerback 2.39215 0.0868412 4.35275
upperback 6.20655 0.0170604 -0.662694
thorax 5.10182 0.197563 -3.12929
lowerneck -8.12768 0.813618 0.967199
upperneck -3.23843 0.942591 3.34071
head 0.333236 0.466767 0.89061
rclavicle -7.22582e-014 1.35174e-014
rhumerus -24.9515 6.32637 -70.2759
rradius 43.3718
rwrist -6.31035
rhand -19.9929 -9.92434
rfingers 7.12502
rthumb 6.3467 -39.8093
lclavicle -7.22582e-014 1.35174e-014
lhumerus -22.2392 10.6582 79.8787
lradius 9.32099
lwrist -11.2425
lhand -10.3636 -11.6933
lfingers 7.12502
lthumb 15.6335 17.6951
rfemur -28.0882 -13.9977 17.2355
rtibia 40.5919
rfoot -18.2306 -11.1631
rtoes -22.0209
lfemur -2.25685 8.78776 -19.1085
ltibia 30.3271
lfoot -24.8044 20.5325
ltoes -5.90604
1189
root -2.72247 17.4789 -21.6969 363.049 -53.1364 -365.127
lowerback 2.33941 0.083357 4.35779
upperback 6.21008 0.0114524 -0.675421
thorax 5.13519 0.196671 -3.14555
lowerneck -8.13354 0.744066 0.869286
upperneck -3.2533 0.858869 3.54354
head 0.330486 0.427586 0.968063
rclavicle 3.43897e-014 -2.5842e-014
rhumerus -24.9548 6.4449 -70.6547
rradius 43.5901
rwrist -6.41519
rhand -19.5091 -10.0335
rfingers 7.12502
rthumb 6.81376 -39.9039
lclavicle 3.43897e-014 -2.5842e-014
lhumerus -22.5616 10.7431 79.8543
lradius 8.78779
lwrist -11.0748
lhand -10.5525 -11.4393
lfingers 7.12502
lthumb 15.4516 17.9632
rfemur -28.0468 -13.6593 17.5152
rtibia 41.7112
rfoot -18.3223 -9.18084
rtoes -23.7325
lfemur -2.48665 8.49957 -18.9193
ltibia 30.5298
lfoot -24.8474 20.3071
ltoes -5.82255
